PathFileType	4	(X/Y/Z)	D:\TRACE\v60_Jaco2_6-2-23\JustBodyDRS_Motion2_9-v60.trc
DataRate	CameraRate	NumFrames	NumMarkers	Units	OrigDataRate	OrigDataStartFrame	OrigNumFrames
100.00	100.00	      14	9	mm	100.00	1	      6895
Frame#	Time	front left toe			Front right toe			aft left toe			aft right toe			Arm			FL body			FR body			AL Body			AR Body			
		X1	Y1	Z1	X2	Y2	Z2	X3	Y3	Z3	X4	Y4	Z4	X5	Y5	Z5	X6	Y6	Z6	X7	Y7	Z7	X8	Y8	Z8	X9	Y9	Z9	

1	0.000	-239.90250	19.43073	-233.05917	167.59798	17.92108	-226.00009	-263.01236	14.93121	400.67975	143.24210	19.05721	390.20142	-136.82178	1205.08569	-384.19836	-110.09292	573.33606	-372.29309	49.03183	573.56232	-367.74191	-139.36742	580.67450	573.70532	17.26698	574.40497	578.88269	
2	0.010	-239.92915	19.47131	-233.09148	167.61572	17.90723	-226.02151	-263.06415	14.99839	400.67526	143.21490	19.04101	390.19635	-137.23372	1205.11499	-384.45068	-110.03481	573.34833	-372.27872	49.04698	573.55353	-367.74063	-139.33047	580.66663	573.72076	17.23305	574.39105	578.87531	
3	0.020	-240.02330	19.50818	-233.06161	167.53958	17.92406	-226.02234	-263.02094	14.95065	400.70401	143.19157	19.04413	390.22556	-137.09950	1205.31006	-384.32889	-110.05466	573.34033	-372.29211	49.01631	573.53540	-367.73297	-139.35034	580.62964	573.72144	17.22154	574.37555	578.88977	
4	0.030	-239.96910	19.47924	-233.05347	167.64163	17.93506	-225.99792	-263.09418	15.00017	400.66614	143.09883	18.99726	390.20230	-136.75801	1205.00598	-384.17554	-109.94828	573.30798	-372.23883	49.03095	573.56799	-367.71295	-139.34163	580.63263	573.75592	17.24940	574.35150	578.91113	
5	0.040	-239.95219	19.48557	-233.06685	167.63560	17.96070	-225.97319	-263.03003	14.95934	400.68698	143.16571	18.99824	390.20370	-136.54448	1205.27942	-384.18283	-110.07148	573.32727	-372.28189	49.22190	573.65558	-367.68805	-139.35339	580.61530	573.74335	17.24720	574.35675	578.92218	
6	0.050	-239.92444	19.45522	-233.08507	167.61975	17.93393	-225.99796	-263.05444	14.99596	400.68149	143.18198	19.00276	390.18170	-136.99605	1205.31165	-384.28778	-110.07148	573.37451	-372.26889	48.99664	573.56384	-367.72733	-139.31276	580.63794	573.75842	17.24751	574.36218	578.90881	
7	0.060	-239.95010	19.50983	-233.07777	167.60861	17.94519	-225.98157	-263.06104	14.99712	400.70602	143.19766	19.02843	390.21561	-137.23793	1205.11194	-384.30405	-110.09487	573.37250	-372.23099	49.03785	573.58093	-367.70819	-139.31726	580.65955	573.79272	17.28646	574.36053	578.91583	
8	0.070	-239.97743	19.50077	-233.04704	167.62431	17.93103	-225.96283	-263.04071	14.98737	400.68967	143.16789	19.00157	390.18958	-136.56483	1205.28735	-384.14603	-110.00835	573.36658	-372.23242	49.13052	573.54224	-367.67410	-139.33710	580.64935	573.80383	17.24938	574.35883	578.91541	
9	0.080	-239.95638	19.47630	-233.05624	167.60339	17.92410	-225.99541	-263.36908	14.97784	400.79440	143.20488	19.03727	390.18158	-137.33047	1205.10999	-384.30682	-110.06401	573.36713	-372.22620	48.98431	573.58105	-367.69009	-139.31392	580.65088	573.83624	17.26353	574.35760	578.94635	
10	0.090	-239.96925	19.43692	-233.10648	167.61729	17.92352	-225.97321	-262.97467	14.92404	400.73096	143.16922	19.00242	390.20209	-136.50842	1205.29785	-384.14145	-110.01087	573.34088	-372.19434	49.05516	573.56824	-367.66898	-139.32234	580.61615	573.81049	17.36881	574.34845	578.94696	
11	0.100	-239.90424	19.43491	-233.09534	167.63033	17.94062	-225.95877	-263.00986	14.99997	400.69827	143.24529	19.03657	390.21631	-137.14293	1205.33386	-384.23792	-110.00832	573.35669	-372.19516	49.05676	573.58472	-367.68146	-139.31277	580.62671	573.84399	17.32506	574.36273	578.94989	
12	0.110	-239.89850	19.43820	-233.08551	167.60742	17.90639	-225.98851	-263.03934	15.01212	400.70319	143.27605	19.04744	390.20795	-136.51654	1205.32825	-384.12845	-109.98890	573.36963	-372.19397	49.06495	573.56689	-367.66904	-139.28465	580.64050	573.83331	17.38174	574.35901	578.95618	
13	0.120	-239.87537	19.44246	-233.09291	167.64684	17.94722	-225.96725	-262.96460	14.94308	400.69470	143.19855	19.01708	390.21057	-136.99091	1205.36755	-384.22815	-110.02382	573.37823	-372.20776	49.07028	573.58142	-367.66959	-139.25754	580.66174	573.83905	17.36553	574.34967	578.95239	
14	0.130	-239.93694	19.44483	-233.11263	167.62393	17.92716	-225.97775	-263.05643	15.00570	400.68741	143.20906	19.01737	390.20605	-136.96101	1205.31934	-384.21759	-110.03147	573.38647	-372.20804	49.02453	573.57001	-367.67667	-139.30177	580.63348	573.86755	17.34311	574.33362	578.96802	
